<svg id="Capa_2" data-name="Capa 2" xmlns="http://www.w3.org/2000/svg" viewBox="0 0 30 15.84"><title>billete</title><path d="M31.17,16.72h-30V.87h30ZM1.64,16.25H30.7V1.34H1.64Z" transform="translate(-1.17 -0.87)"/><path d="M26.51,15.29H6.05A2.1,2.1,0,0,1,4,13.2V4.39A2.1,2.1,0,0,1,6.05,2.3H26.51A2.1,2.1,0,0,1,28.6,4.39V13.2A2.1,2.1,0,0,1,26.51,15.29ZM6.05,2.77A1.63,1.63,0,0,0,4.43,4.39V13.2a1.63,1.63,0,0,0,1.62,1.62H26.51a1.63,1.63,0,0,0,1.62-1.62V4.39a1.63,1.63,0,0,0-1.62-1.62Z" transform="translate(-1.17 -0.87)"/><path d="M16.17,13.67A4.88,4.88,0,1,1,21,8.8,4.88,4.88,0,0,1,16.17,13.67Zm0-9.28A4.41,4.41,0,1,0,20.58,8.8,4.41,4.41,0,0,0,16.17,4.39Z" transform="translate(-1.17 -0.87)"/><rect x="4.63" y="5.9" width="3.47" height="0.47"/><rect x="6.37" y="10.01" width="3.24" height="0.47"/><rect x="20.24" y="5.37" width="3.8" height="0.47"/><rect x="21.75" y="9.44" width="3.84" height="0.47"/><path d="M17.52,10.14l.32.31a2,2,0,0,1-.76.52,2.59,2.59,0,0,1-1,.18H16l-.19.76h-.32l.2-.79a2.3,2.3,0,0,1-.64-.18l-.24,1h-.32l.28-1.11A2.15,2.15,0,0,1,14,10a2.31,2.31,0,0,1-.31-1.2,2.43,2.43,0,0,1,.29-1.18,2.23,2.23,0,0,1,.82-.85,2.37,2.37,0,0,1,1.17-.36l.2-.78h.31l-.19.77a2.52,2.52,0,0,1,.66.11l.22-.88h.32l-.25,1a1.94,1.94,0,0,1,.65.47l-.32.31A2.2,2.2,0,0,0,17.08,7l-.94,3.68A1.85,1.85,0,0,0,17.52,10.14Zm-3.18-.5a1.81,1.81,0,0,0,.57.68l.89-3.5a1.86,1.86,0,0,0-1.45,1,1.86,1.86,0,0,0-.22.91A1.91,1.91,0,0,0,14.34,9.64Zm1.49,1,1-3.78a2.08,2.08,0,0,0-.66-.11l-.94,3.7A2,2,0,0,0,15.83,10.68Z" transform="translate(-1.17 -0.87)"/></svg>