<svg id="Capa_2" data-name="Capa 2" xmlns="http://www.w3.org/2000/svg" viewBox="0 0 11.2 16.9"><title>colon</title><path d="M10.8,12.45l.85.85a5.33,5.33,0,0,1-2,1.37A6.86,6.86,0,0,1,7,15.15H6.81l-.52,2H5.44L6,15.08a6.35,6.35,0,0,1-1.7-.47L3.61,17.2H2.77l.75-3A6,6,0,0,1,1.26,12,6.44,6.44,0,0,1,.45,8.75a6.44,6.44,0,0,1,.78-3.16A6,6,0,0,1,3.4,3.33a6.69,6.69,0,0,1,3.14-1L7.06.3h.85L7.39,2.35a7,7,0,0,1,1.76.3L9.74.3h.85L9.92,2.94a4.85,4.85,0,0,1,1.73,1.24L10.8,5a5.09,5.09,0,0,0-1.18-.9L7.12,14A4.89,4.89,0,0,0,10.8,12.45ZM2.32,11.14A5.17,5.17,0,0,0,3.84,13L6.22,3.59a5.11,5.11,0,0,0-2.29.9,5.18,5.18,0,0,0-1.6,1.82,5.25,5.25,0,0,0-.57,2.44A5.1,5.1,0,0,0,2.32,11.14Zm4,2.77L8.84,3.8a5.5,5.5,0,0,0-1.76-.27l-2.5,9.86A5.63,5.63,0,0,0,6.29,13.91Z" transform="translate(-0.45 -0.3)"/></svg>