<svg id="Capa_1" data-name="Capa 1" xmlns="http://www.w3.org/2000/svg" viewBox="0 0 71.83 60.37"><defs><style>.cls-1{fill:#fff;}</style></defs><title>iconoblanco</title><path class="cls-1" d="M25.44,55.38a.81.81,0,0,1-.58,1.39h-.55a3.76,3.76,0,0,0-3.34,2,.8.8,0,0,1-.76.42L7.66,58.49c-3.73-.3-5.46-5.41-3.41-8.55l4-6.16a4.94,4.94,0,0,1,4.37-2.24h0a5.32,5.32,0,0,1,4.55,3C18.68,47.63,21.32,51.14,25.44,55.38Z" transform="translate(-1.87 -2.5)"/><path class="cls-1" d="M66.68,62.85l-13-.85a.93.93,0,0,1-.86-.91h0A3.87,3.87,0,0,0,49,57.18h0a1.1,1.1,0,0,1-.79-1.86,47.48,47.48,0,0,0,7.49-9.58v0A3.34,3.34,0,0,1,58.78,44l8.71.51a5.09,5.09,0,0,1,4.83,4.57s0,0,0,.08l1.2,5.73A6.46,6.46,0,0,1,66.68,62.85Z" transform="translate(-1.87 -2.5)"/><path class="cls-1" d="M16.19,38.46a.82.82,0,0,1-.86.81l-8.76-.43a4.93,4.93,0,0,1-4.34-6.76l2.13-5.36A5,5,0,0,1,9,23.6H22a.83.83,0,0,1,.67,1.31C19.06,29.92,16.32,33.92,16.19,38.46Z" transform="translate(-1.87 -2.5)"/><path class="cls-1" d="M59.87,41.84h0a3.28,3.28,0,0,1-3.11-3.24C56.68,34,53.92,30,50.24,24.91a.83.83,0,0,1,.67-1.31h6.25a4.93,4.93,0,0,1,4.65,3.3l3,8.36A4.94,4.94,0,0,1,59.87,41.84Z" transform="translate(-1.87 -2.5)"/><path class="cls-1" d="M28.06,13.42v0a13.06,13.06,0,0,1-.87,3.69,12.26,12.26,0,0,1-1.9,3.5c-.66.72-1.41.52-2.29.56l-5.81.24-.89,0a5.9,5.9,0,0,1-6.14-5.89V12.44a5.09,5.09,0,0,1,4.34-5l8.91-1.33a3.65,3.65,0,0,1,3.94,2.29A11.62,11.62,0,0,1,28.06,13.42Z" transform="translate(-1.87 -2.5)"/><path class="cls-1" d="M53.13,19.61l-4.22.18a3.34,3.34,0,0,1-3.18-1.95h0c-3.33-7.18.72-12.15,3.89-14.71a2.72,2.72,0,0,1,3.85.4,4.94,4.94,0,0,1,.67,1.16l3.34,8.11A4.93,4.93,0,0,1,53.13,19.61Z" transform="translate(-1.87 -2.5)"/><path class="cls-1" d="M27.29,5.2l0-.09c.32-.75,1.87-.69,2.52-.74,1.33-.09,2.66-.22,4-.36,4.29-.45,8.56-1,12.84-1.5,1.84-.21-1.08,2.75-1.44,3.17a11.55,11.55,0,0,0-2.76,7.54c.06,3.47,1.82,6.7,4,9.41a86.52,86.52,0,0,1-15.35,5.74,15.32,15.32,0,0,1-4.24.62,2.49,2.49,0,0,1-2.21-1c-.54-1,.2-2.14.88-3a37,37,0,0,0,4.65-7.4,12.8,12.8,0,0,0,1.26-4.79A6.55,6.55,0,0,0,29.9,8.19C29.35,7.59,27,6.22,27.29,5.2Z" transform="translate(-1.87 -2.5)"/><path class="cls-1" d="M55.37,40.51a14.61,14.61,0,0,0-.34-2,22.64,22.64,0,0,0-1.64-5A42.75,42.75,0,0,0,51,29a15.91,15.91,0,0,0-2.78-3.73,1.27,1.27,0,0,0-.45-.3c-.63-.21-1.56.52-2.09.8-.85.45-1.69.89-2.55,1.31-1.63.82-3.29,1.58-5,2.24a28,28,0,0,1-7,1.85c-2.19.26-4.83.35-6.77-.78-.45-.27-.88-.83-1.32-.9a.54.54,0,0,0-.28,0C21.59,30,20.61,32,20.16,33.1a10.43,10.43,0,0,0-.79,3.49c0,.75-.18,2.44.67,2.86,3.73,1.82,8,2.71,12.09,3.53A56.06,56.06,0,0,0,45,44.25,44.35,44.35,0,0,0,54.36,43a.9.9,0,0,0,.32-.13A2.68,2.68,0,0,0,55.37,40.51Z" transform="translate(-1.87 -2.5)"/><path class="cls-1" d="M51.52,48.23l.21-.23a2.33,2.33,0,0,0,.36-.56c.7-1.74-1.8-1-2.55-.81a24.94,24.94,0,0,1-5.46.41A66.08,66.08,0,0,1,31,45.58q-3.18-.67-6.29-1.64c-1.06-.33-2.12-.69-3.16-1.07-.45-.16-1.67-1-2.11-.53s1.43,3.19,1.76,3.73a53.22,53.22,0,0,0,3.8,5.5c1.27,1.62,2.74,3,3.24,5.06A1.49,1.49,0,0,1,28,57.89c-.64.83-1.74.36-2.68.32a1.65,1.65,0,0,0-1.56.73,1,1,0,0,0-.06.82c.19.5.71.61,1.17.69,3.8.68,7.61,1.25,11.45,1.63,2.38.23,4.75.48,7.14.56,1.17,0,2.34,0,3.51,0A5.71,5.71,0,0,0,49.86,62a1.25,1.25,0,0,0,.61-.93,1.55,1.55,0,0,0-.76-1.15,9.12,9.12,0,0,0-2.06-1.17,3.82,3.82,0,0,1-1.95-1.18,2.13,2.13,0,0,1-.16-1.73,10.75,10.75,0,0,1,2.72-3.9C49.37,50.73,50.44,49.46,51.52,48.23Z" transform="translate(-1.87 -2.5)"/></svg>